<svg width="662" height="494" viewBox="0 0 662 494" fill="none" xmlns="http://www.w3.org/2000/svg">
<path d="M330.674 493.28C148.048 493.28 0.000305176 484.442 0.000305176 473.539C0.000305176 462.637 148.048 453.799 330.674 453.799C513.3 453.799 661.348 462.637 661.348 473.539C661.348 484.442 513.3 493.28 330.674 493.28Z" fill="#1E314E"/>
<path d="M220.54 268.037H366.082C368.838 268.037 371.072 270.321 371.072 273.138V279.005C371.072 281.822 368.838 284.106 366.082 284.106H220.54C217.784 284.106 215.55 281.822 215.55 279.005V273.138C215.55 270.321 217.784 268.037 220.54 268.037Z" fill="#263238"/>
<path d="M221.931 463.084H215.556L222.889 284.104H231.717L221.931 463.084Z" fill="#407BFF"/>
<path opacity="0.6" d="M221.931 463.084H215.556L222.889 284.104H231.717L221.931 463.084Z" fill="white"/>
<path d="M280.659 463.084H287.039L279.695 284.104H270.868L280.659 463.084Z" fill="#407BFF"/>
<path opacity="0.6" d="M280.659 463.084H287.039L279.695 284.104H270.868L280.659 463.084Z" fill="white"/>
<path d="M305.969 463.084H299.588L306.932 284.104H315.76L305.969 463.084Z" fill="#407BFF"/>
<path opacity="0.6" d="M305.969 463.084H299.588L306.932 284.104H315.76L305.969 463.084Z" fill="white"/>
<path d="M364.696 463.084H371.074L363.73 284.104H354.903L364.696 463.084Z" fill="#407BFF"/>
<path opacity="0.6" d="M364.696 463.084H371.074L363.73 284.104H354.903L364.696 463.084Z" fill="white"/>
<g opacity="0.3">
<path opacity="0.3" d="M222.891 284.099H231.729L231.316 291.707H222.577L222.891 284.099Z" fill="#407BFF"/>
<path opacity="0.3" d="M280.006 291.707H271.284L270.871 284.099H279.694L280.006 291.707Z" fill="#407BFF"/>
<path opacity="0.3" d="M315.754 284.099L315.341 291.707H306.618L306.932 284.099H315.754Z" fill="#407BFF"/>
<path opacity="0.3" d="M364.051 291.707H355.312L354.899 284.099H363.737L364.051 291.707Z" fill="#407BFF"/>
</g>
<path d="M310.065 436.782L324.509 444.627L347.248 413.225L332.804 405.38L310.065 436.782Z" fill="#FFB573"/>
<path d="M329.712 439.777L314.644 429.066C314.397 428.877 314.087 428.795 313.782 428.838C313.476 428.881 313.2 429.045 313.012 429.296L303.992 440.964C303.554 441.603 303.381 442.392 303.508 443.16C303.636 443.929 304.055 444.615 304.674 445.07C309.983 448.708 312.376 449.976 319.317 454.188C326.056 458.385 332.997 462.234 340.114 465.72C346.265 468.452 348.929 462.075 346.506 460.316C340.77 456.156 333.162 447.993 331.443 442.261C331.152 441.26 330.543 440.386 329.712 439.777Z" fill="#263238"/>
<path opacity="0.2" d="M332.794 405.389L347.244 413.234L336.288 428.351L322.167 420.054L332.794 405.389Z" fill="black"/>
<path d="M297.95 219.409C297.95 219.409 410.072 215.842 410.455 263.729C411.006 332.561 347.104 422.941 347.104 422.941L322.224 405.947C322.224 405.947 366.016 340.236 366.396 286.507C333.352 276.97 255.567 282.95 245.466 254.952C237.203 232.049 241.519 219.404 241.519 219.404L297.95 219.409Z" fill="#407BFF"/>
<path opacity="0.2" d="M297.95 219.409C297.95 219.409 410.072 215.842 410.455 263.729C411.006 332.561 347.104 422.941 347.104 422.941L322.224 405.947C322.224 405.947 366.016 340.236 366.396 286.507C333.352 276.97 255.567 282.95 245.466 254.952C237.203 232.049 241.519 219.404 241.519 219.404L297.95 219.409Z" fill="black"/>
<path d="M315.357 410.321L345.097 428.94L354.424 419.264L321.747 398.236L315.357 410.321Z" fill="#263238"/>
<path d="M332.844 445.546C331.661 444.658 330.575 443.642 329.604 442.516C329.555 442.46 329.523 442.391 329.512 442.317C329.5 442.242 329.51 442.167 329.54 442.098C329.569 442.029 329.618 441.971 329.679 441.93C329.74 441.889 329.812 441.866 329.885 441.865C330.521 441.865 336.124 441.913 337.314 443.733C337.45 443.94 337.532 444.18 337.552 444.429C337.572 444.678 337.529 444.928 337.427 445.155C337.316 445.519 337.111 445.846 336.835 446.102C336.558 446.358 336.22 446.534 335.855 446.611C334.756 446.653 333.683 446.273 332.844 445.546ZM330.779 442.662C332.846 444.857 334.664 446.038 335.725 445.846C335.962 445.788 336.18 445.667 336.356 445.494C336.532 445.321 336.659 445.103 336.724 444.863C336.778 444.753 336.803 444.631 336.795 444.508C336.788 444.386 336.75 444.267 336.683 444.165C336.04 443.187 333.023 442.756 330.779 442.662Z" fill="#407BFF"/>
<path d="M329.667 442.573C329.618 442.537 329.578 442.49 329.548 442.435C329.518 442.377 329.503 442.312 329.505 442.246C329.506 442.18 329.524 442.116 329.557 442.059C329.657 441.884 332.038 437.725 334.298 437.352C334.588 437.3 334.887 437.317 335.169 437.403C335.452 437.489 335.711 437.641 335.926 437.847C336.188 438.046 336.377 438.328 336.464 438.65C336.55 438.971 336.528 439.313 336.402 439.62C335.695 441.335 331.748 442.775 329.858 442.639C329.79 442.635 329.724 442.612 329.667 442.573ZM335.282 438.319C335.158 438.229 335.018 438.165 334.87 438.131C334.722 438.098 334.568 438.095 334.419 438.122C333.07 438.342 331.424 440.523 330.576 441.851C332.427 441.677 335.237 440.446 335.701 439.32C335.79 439.106 335.838 438.811 335.422 438.431C335.377 438.391 335.33 438.354 335.282 438.319Z" fill="#407BFF"/>
<path d="M336.767 456.029L352.969 455.245L355.623 416.132L339.421 416.917L336.767 456.029Z" fill="#FFB573"/>
<path d="M353.345 452.412L334.999 451.817C334.691 451.796 334.388 451.9 334.155 452.106C333.922 452.313 333.778 452.605 333.754 452.919L332.405 467.727C332.38 468.507 332.656 469.265 333.173 469.838C333.691 470.411 334.409 470.752 335.171 470.787C341.562 470.881 344.625 470.597 352.692 470.857C357.655 471.017 367.419 471.772 374.222 470.897C380.873 470.039 379.984 463.165 377.024 462.917C370.014 462.33 360.62 457.379 356.125 453.527C355.345 452.85 354.367 452.457 353.345 452.412Z" fill="#263238"/>
<path d="M359.042 455.506C357.577 455.42 356.124 455.173 354.71 454.769C354.64 454.749 354.577 454.709 354.528 454.654C354.479 454.598 354.447 454.53 354.435 454.456C354.424 454.382 354.433 454.307 354.463 454.239C354.492 454.17 354.54 454.112 354.601 454.071C355.133 453.723 359.856 450.637 361.826 451.502C362.051 451.599 362.247 451.754 362.397 451.952C362.546 452.15 362.643 452.384 362.679 452.631C362.779 452.998 362.782 453.385 362.687 453.752C362.592 454.12 362.402 454.455 362.138 454.723C361.237 455.369 360.134 455.648 359.042 455.506ZM355.775 454.239C358.674 454.936 360.831 454.905 361.618 454.155C361.786 453.974 361.904 453.75 361.959 453.507C362.013 453.264 362.004 453.01 361.93 452.772C361.917 452.651 361.873 452.535 361.802 452.436C361.731 452.338 361.636 452.261 361.526 452.213C360.466 451.749 357.707 453.067 355.775 454.239Z" fill="#407BFF"/>
<path d="M354.795 454.781C354.7 454.777 354.609 454.738 354.541 454.67C354.474 454.602 354.433 454.51 354.428 454.413C354.418 454.209 354.199 449.396 355.898 447.827C356.114 447.621 356.373 447.47 356.656 447.384C356.938 447.299 357.237 447.282 357.527 447.335C357.852 447.356 358.161 447.488 358.404 447.709C358.648 447.93 358.812 448.228 358.871 448.555C359.191 450.389 356.654 453.794 354.991 454.732C354.931 454.765 354.863 454.782 354.795 454.781ZM357.235 448.088C357.084 448.081 356.932 448.105 356.79 448.159C356.648 448.214 356.518 448.297 356.408 448.404C355.385 449.338 355.175 452.084 355.172 453.67C356.63 452.49 358.332 449.896 358.122 448.695C358.083 448.465 357.965 448.191 357.413 448.104C357.354 448.095 357.295 448.09 357.235 448.088Z" fill="#407BFF"/>
<path opacity="0.2" d="M339.413 416.927L355.627 416.143L354.101 438.509L337.943 438.481L339.413 416.927Z" fill="black"/>
<path d="M258.066 219.41C258.066 219.41 375.381 230.742 371.109 266.845C364.947 318.908 361.899 431.113 361.899 431.113L332 432.314C332 432.314 319.33 331.109 325.885 277.797C295.527 277.797 221.206 280.032 214.426 261.331C208.44 244.812 210.575 219.41 210.575 219.41H258.066Z" fill="#407BFF"/>
<path d="M328.696 434.198L364.58 432.379L365.869 416.413L326.517 419.19L328.696 434.198Z" fill="#263238"/>
<path d="M284.105 113.657C284.322 116.591 284.551 119.128 284.876 121.823C285.183 124.48 285.541 127.127 285.949 129.763C286.749 135.045 287.759 140.305 288.957 145.579C291.293 156.637 295.079 167.321 300.214 177.343C301.744 180.155 303.504 182.83 305.473 185.34C307.687 188.172 310.296 190.656 313.218 192.711C318.851 196.527 325.363 198.771 332.106 199.222C338.005 199.634 343.929 199.061 349.647 197.524C352.349 196.828 355.005 195.958 357.6 194.92C358.887 194.414 360.149 193.844 361.403 193.253C362.696 192.653 363.808 192.032 365.24 191.243L360.753 179.573L357.494 179.994L354.083 180.343C351.806 180.528 349.55 180.641 347.341 180.648C343.196 180.718 339.06 180.233 335.038 179.206C331.82 178.413 328.84 176.829 326.357 174.59C325.295 173.57 324.347 172.433 323.531 171.199C322.518 169.618 321.618 167.965 320.838 166.251C319.028 162.252 317.545 158.107 316.404 153.858C315.116 149.438 314.066 144.813 313.131 140.118C312.167 135.429 311.393 130.645 310.653 125.847L309.645 118.63C309.35 116.264 309.012 113.729 308.792 111.581L284.105 113.657Z" fill="#FFB573"/>
<path d="M283.999 99.4542C295.992 87.6079 310.775 94.6006 316.674 116.787C320.014 128.682 322.297 140.861 323.496 153.176L285.515 161.208C278.606 140.031 271.716 111.586 283.999 99.4542Z" fill="#263238"/>
<path opacity="0.3" d="M296.225 123.687C293.512 121.182 285.796 132.376 281.094 146.222C282.421 151.398 283.948 156.492 285.496 161.215L308.35 156.387C306.52 142.58 302.319 129.295 296.225 123.687Z" fill="black"/>
<path d="M363.328 174.2L371.781 170.872L372.152 189.371C372.152 189.371 357.826 195.706 354.905 188.429L355.928 183.814C356.431 181.77 357.35 179.857 358.625 178.2C359.9 176.544 361.503 175.18 363.328 174.2Z" fill="#FFB573"/>
<path d="M381.91 171.358L386.943 186.874L372.153 189.362L371.782 170.863L381.91 171.358Z" fill="#FFB573"/>
<path d="M369.012 183.68C369.192 183.679 369.369 183.629 369.522 183.533C369.676 183.438 369.802 183.301 369.885 183.137L385.122 153.162C385.186 153.044 385.226 152.915 385.24 152.781C385.255 152.647 385.242 152.512 385.204 152.383C385.166 152.254 385.104 152.134 385.02 152.03C384.935 151.927 384.832 151.841 384.715 151.779C384.598 151.717 384.47 151.68 384.339 151.67C384.208 151.659 384.076 151.676 383.951 151.718C383.826 151.761 383.71 151.829 383.612 151.918C383.513 152.006 383.432 152.115 383.375 152.236L368.14 182.212C368.063 182.365 368.025 182.536 368.031 182.708C368.037 182.88 368.086 183.048 368.173 183.196C368.261 183.343 368.384 183.465 368.531 183.55C368.677 183.634 368.843 183.679 369.012 183.68Z" fill="#263238"/>
<path d="M285.41 87.5736L267.205 82.265L243.793 81.1353C240.242 80.9678 236.735 81.9961 233.812 84.0624C230.888 86.1287 228.708 89.1188 227.608 92.5736C223.143 106.477 219.038 126.618 216.046 144.003C212.693 163.494 210.945 192.787 210.577 219.411H297.952C299.945 163.888 306.859 131.059 309.924 112.891C310.525 109.331 309.971 105.669 308.345 102.462C306.72 99.2543 304.112 96.6787 300.921 95.1277L285.41 87.5736Z" fill="#263238"/>
<path opacity="0.3" d="M216.054 144.003C218.404 130.323 221.44 114.917 224.813 102.202C240.386 99.5121 247.933 134.425 243.309 151.737C238.685 169.048 214.029 158.559 214.029 158.559C214.625 153.304 215.3 148.405 216.054 144.003Z" fill="black"/>
<path d="M270.303 46.0183C266.551 55.4325 268.812 72.6919 276.209 67.8104C283.606 62.929 272.587 40.2704 270.303 46.0183Z" fill="#263238"/>
<path d="M274.461 52.0361L281.537 63.0753L291.166 78.1207C289.922 79.4119 288.914 80.9205 288.19 82.575C286.432 86.1995 284.978 88.9105 292.419 94.097C293.222 94.6206 293.86 95.3699 294.256 96.255C294.653 97.1401 294.791 98.1233 294.654 99.0866C294.215 101.437 291.925 103.721 283.889 102.272C276.147 100.753 269.084 96.7443 263.728 90.8317C261.052 88.0963 261.668 86.0356 264.24 83.2044C271.546 75.1778 273.731 62.3674 274.461 52.0361Z" fill="#FFB573"/>
<path opacity="0.2" d="M288.795 74.4145L282.887 63.6912C282.766 63.9579 282.626 64.2665 282.484 64.575C281.956 65.9075 281.533 67.281 281.219 68.6824C280.133 73.4487 283.75 80.2478 287.729 83.4922C287.899 83.1854 288.031 82.8768 288.191 82.5682C288.898 81.0189 289.817 79.5801 290.92 78.2952C290.99 78.2212 291.071 78.1588 291.16 78.1104L288.795 74.4145Z" fill="black"/>
<path d="M324.218 39.0238C326.411 44.0935 318.612 58.464 309.693 52.6534C300.773 46.8428 320.33 30.0368 324.218 39.0238Z" fill="#263238"/>
<path d="M281.207 105.363C281.324 105.363 281.437 105.32 281.526 105.242C281.615 105.165 281.674 105.057 281.693 104.939C282.353 100.628 285.076 97.8959 288.232 94.73C292.185 90.7621 296.669 86.2641 298.145 77.4706C298.167 77.3391 298.137 77.2041 298.062 77.0953C297.986 76.9865 297.872 76.9127 297.743 76.8901C297.679 76.8771 297.613 76.8775 297.55 76.8913C297.486 76.905 297.426 76.9319 297.373 76.9702C297.32 77.0086 297.275 77.0575 297.241 77.1142C297.207 77.1708 297.184 77.234 297.175 77.2998C295.753 85.7778 291.392 90.1554 287.543 94.0169C284.399 97.1724 281.432 100.15 280.721 104.787C280.701 104.919 280.733 105.053 280.81 105.161C280.886 105.269 281.001 105.341 281.13 105.363C281.155 105.364 281.181 105.364 281.207 105.363Z" fill="white"/>
<path d="M277.584 33.9211C274.248 49.7143 271.508 58.7973 277.03 68.8462C285.337 83.9613 306.153 81.9058 314.064 67.3713C321.185 54.2959 325.443 30.6592 312.188 20.4605C309.228 18.2079 305.76 16.7547 302.104 16.2352C298.449 15.7158 294.724 16.1468 291.275 17.4886C287.825 18.8303 284.762 21.0394 282.37 23.9116C279.977 26.7839 278.331 30.2264 277.584 33.9211Z" fill="#FFB573"/>
<path d="M272.995 44.7652C278.313 52.4867 292.267 38.3042 291.126 28.7853C304.976 36.845 320.017 47.6139 329.148 38.5378C339.681 28.0775 336.794 13.0844 324.451 11.7455C326.636 16.104 314.271 18.0339 307.613 11.2992C296.444 0.000316381 278.79 2.36784 279.131 11.5224C270.606 8.06174 261.307 27.7951 272.995 44.7652Z" fill="#263238"/>
<path d="M280.754 14.0745C277.457 11.5692 279.655 2.62905 287.289 0C280.024 0.95887 272.508 6.49416 280.754 14.0745Z" fill="#263238"/>
<path d="M268.073 44.0619C267.923 47.6727 269.071 51.2149 271.3 54.02C274.239 57.5852 278.77 54.7417 279.819 50.2944C280.764 46.2846 279.539 40.1079 275.693 38.1937C271.902 36.3073 268.271 39.5709 268.073 44.0619Z" fill="#FFB573"/>
<path d="M299.75 46.7226C299.339 48.004 299.661 49.2872 300.47 49.5905C301.278 49.8939 302.267 49.1024 302.687 47.821C303.106 46.5396 302.775 45.2564 301.967 44.9531C301.159 44.6497 300.161 45.443 299.75 46.7226Z" fill="#263238"/>
<path d="M313.734 51.9682C313.323 53.2478 313.646 54.5326 314.454 54.8359C315.262 55.1392 316.252 54.3478 316.671 53.0664C317.091 51.7851 316.76 50.5021 315.951 50.1988C315.143 49.8954 314.145 50.6869 313.734 51.9682Z" fill="#263238"/>
<path d="M308.95 51.2903C308.888 55.1098 309.324 58.9207 310.248 62.6222C307.741 63.5549 304.975 61.3478 304.975 61.3478L308.95 51.2903Z" fill="#ED893E"/>
<path d="M301.46 68.3716C300.009 67.8787 298.671 67.0912 297.525 66.0564C296.38 65.0217 295.45 63.761 294.793 62.35C294.76 62.2541 294.765 62.1488 294.805 62.0561C294.846 61.9634 294.92 61.8903 295.012 61.852C295.105 61.8136 295.208 61.813 295.3 61.8502C295.393 61.8874 295.468 61.9596 295.51 62.0518C296.244 63.5745 297.31 64.9047 298.627 65.9399C299.943 66.975 301.474 67.6877 303.102 68.0229C303.152 68.0344 303.199 68.0557 303.24 68.0857C303.282 68.1156 303.317 68.1537 303.344 68.1977C303.372 68.2416 303.39 68.2906 303.399 68.3418C303.407 68.393 303.406 68.4455 303.395 68.4962C303.384 68.5469 303.363 68.5949 303.333 68.6374C303.304 68.6799 303.267 68.716 303.224 68.7438C303.181 68.7715 303.133 68.7903 303.083 68.7992C303.033 68.808 302.981 68.8067 302.932 68.7952C302.433 68.6837 301.942 68.5422 301.46 68.3716Z" fill="#263238"/>
<path d="M298.474 41.187C298.358 41.1242 298.26 41.0317 298.189 40.9186C298.078 40.7421 298.041 40.528 298.084 40.3233C298.128 40.1185 298.249 39.9396 298.421 39.8257C299.433 39.1311 300.596 38.7014 301.808 38.5743C303.021 38.4472 304.245 38.6268 305.374 39.0971C305.466 39.1405 305.548 39.2021 305.617 39.2784C305.685 39.3547 305.738 39.4441 305.772 39.5415C305.806 39.6388 305.821 39.7421 305.815 39.8454C305.81 39.9487 305.785 40.0498 305.741 40.1429C305.652 40.3302 305.496 40.4745 305.304 40.5447C305.113 40.6148 304.902 40.6051 304.717 40.5177C303.826 40.1616 302.863 40.0329 301.912 40.1429C300.961 40.2528 300.051 40.5981 299.26 41.1487C299.144 41.2267 299.01 41.2714 298.872 41.2782C298.734 41.2849 298.596 41.2534 298.474 41.187Z" fill="#263238"/>
<path d="M316.506 43.6959C316.491 43.559 316.51 43.4203 316.563 43.2935C316.616 43.1668 316.7 43.0564 316.808 42.9735C316.916 42.8906 317.043 42.838 317.177 42.821C317.311 42.804 317.446 42.8231 317.571 42.8765C318.706 43.3297 319.715 44.0617 320.508 45.008C321.302 45.9542 321.855 47.0855 322.119 48.3021C322.137 48.4047 322.134 48.5099 322.112 48.6114C322.089 48.713 322.047 48.809 321.987 48.8936C321.928 48.9783 321.853 49.0499 321.766 49.1043C321.679 49.1587 321.582 49.1948 321.481 49.2104C321.279 49.2441 321.072 49.1944 320.905 49.0722C320.739 48.9499 320.626 48.7651 320.593 48.5583C320.371 47.6079 319.925 46.727 319.296 45.9917C318.666 45.2563 317.871 44.6886 316.979 44.3375C316.851 44.2837 316.74 44.1957 316.657 44.0828C316.574 43.97 316.522 43.8363 316.506 43.6959Z" fill="#263238"/>
<path d="M230.62 93.1116C228.978 95.9324 227.55 98.4672 226.136 101.189C224.731 103.872 223.36 106.571 222.023 109.285C219.321 114.709 216.879 120.282 214.544 125.962C212.278 131.673 210.139 137.5 208.362 143.614C206.429 150.004 205.133 156.577 204.494 163.234C204.151 167.129 204.28 171.052 204.879 174.914C205.276 177.463 206.038 179.937 207.142 182.257C208.411 184.88 210.18 187.216 212.346 189.128C214.306 190.851 216.531 192.23 218.932 193.208C220.953 194.035 223.056 194.635 225.203 194.996C228.819 195.574 232.493 195.676 236.134 195.301C239.385 195.012 242.611 194.479 245.785 193.706C248.816 192.998 251.81 192.135 254.756 191.119C260.546 189.168 266.169 186.736 271.57 183.847L267.245 172.114C256.642 174.163 245.245 176.068 235.694 175.47C233.6 175.356 231.527 174.992 229.517 174.386C227.859 173.863 226.935 173.08 227.006 172.84C227.02 172.7 227.108 172.756 227.151 172.665C227.194 172.575 227.204 172.474 227.11 171.572C227.009 169.616 227.124 167.654 227.451 165.723C228.276 160.746 229.551 155.859 231.26 151.122C233.004 146.077 235.025 140.967 237.273 135.903C239.456 130.809 241.902 125.77 244.341 120.716C245.575 118.195 246.842 115.69 248.14 113.201L251.997 105.901L230.62 93.1116Z" fill="#FFB573"/>
<path d="M238.61 81.4103C255.1 78.8476 263.194 93.2984 255.438 114.883C251.423 126.558 246.386 137.838 240.389 148.588L204.87 132.66C211.235 111.304 221.725 84.0341 238.61 81.4103Z" fill="#263238"/>
<path d="M276.37 170.45L283.986 172.795L273.192 188.466C273.192 188.466 257.185 182.607 260.463 175.494L264.486 173.151C267.934 171.142 272.294 169.022 276.37 170.45Z" fill="#FFB573"/>
<path d="M290.715 183.597L283.096 191.384L273.193 188.468L283.987 172.796L290.715 183.597Z" fill="#FFB573"/>
<path d="M274.09 49.0527C272.737 49.0527 271.641 47.6946 271.641 46.0192C271.641 44.3438 272.737 42.9856 274.09 42.9856C275.443 42.9856 276.539 44.3438 276.539 46.0192C276.539 47.6946 275.443 49.0527 274.09 49.0527Z" fill="white"/>
<path d="M272.054 54.0386L273.476 53.9898L274.348 46.9971L271.643 46.3765L272.054 54.0386Z" fill="white"/>
<path d="M262.262 185.817C267.437 185.817 271.915 185.046 274.675 182.504C275.695 181.491 276.488 180.264 277.001 178.907C277.513 177.551 277.733 176.097 277.644 174.645C277.495 167.46 276.416 160.327 274.434 153.432C272.047 143.932 270.171 136.429 275.877 127.185C284.943 112.482 282.245 91.9256 275.901 79.0491C271.039 69.1903 272.691 58.2785 273.312 54.1711C273.394 53.6342 273.455 53.221 273.483 52.9508C273.495 52.8182 273.456 52.686 273.373 52.5828C273.291 52.4797 273.172 52.4139 273.043 52.3998C272.914 52.3911 272.786 52.4326 272.686 52.5161C272.585 52.5995 272.52 52.7187 272.502 52.8496C272.478 53.1111 272.418 53.5086 272.331 54.0212C271.697 58.2157 270.009 69.3629 275.011 79.5058C281.236 92.1366 283.9 112.281 275.035 126.654C269.108 136.263 271.131 144.335 273.472 153.676C275.432 160.49 276.501 167.539 276.651 174.64C276.745 175.951 276.557 177.267 276.1 178.496C275.643 179.725 274.928 180.837 274.006 181.753C269.413 185.99 259.245 184.914 249.41 183.877C245.015 183.411 240.47 182.932 236.458 182.932C236.328 182.932 236.203 182.985 236.111 183.079C236.019 183.173 235.967 183.301 235.967 183.434C235.967 183.567 236.019 183.695 236.111 183.789C236.203 183.883 236.328 183.936 236.458 183.936C240.42 183.936 244.938 184.415 249.309 184.875C253.731 185.339 258.21 185.817 262.262 185.817Z" fill="white"/>
<path d="M216.03 182.089H235.445C236.011 182.089 236.469 182.558 236.469 183.135V184.532C236.469 185.11 236.011 185.578 235.445 185.578H216.03C215.465 185.578 215.007 185.11 215.007 184.532V183.135C215.007 182.558 215.465 182.089 216.03 182.089Z" fill="white"/>
<path d="M94.2297 197.189H567.122C568.626 197.184 570.068 196.571 571.132 195.484C572.196 194.396 572.796 192.922 572.801 191.384C572.797 189.845 572.197 188.371 571.133 187.283C570.069 186.195 568.627 185.583 567.122 185.578H94.2297C92.7247 185.583 91.2826 186.195 90.2184 187.283C89.1542 188.371 88.5545 189.845 88.5505 191.384C88.555 192.922 89.1548 194.396 90.2188 195.484C91.2829 196.571 92.7249 197.184 94.2297 197.189Z" fill="#4A5979"/>
<path opacity="0.3" d="M94.2278 197.189H204.93C206.435 197.184 207.878 196.571 208.942 195.484C210.006 194.396 210.606 192.922 210.611 191.384C210.607 189.845 210.007 188.371 208.942 187.283C207.878 186.195 206.436 185.583 204.93 185.578H94.2278C92.7228 185.583 91.2806 186.195 90.2165 187.283C89.1523 188.371 88.5526 189.845 88.5486 191.384C88.553 192.922 89.1528 194.396 90.2169 195.484C91.281 196.571 92.7229 197.184 94.2278 197.189Z" fill="#263238"/>
<path d="M99.4411 470.721H88.5483L101.087 197.186H116.158L99.4411 470.721Z" fill="#263238"/>
<path opacity="0.1" d="M99.4411 470.721H88.5483L101.087 197.186H116.158L99.4411 470.721Z" fill="white"/>
<path d="M199.718 470.721H210.607L198.069 197.186H182.996L199.718 470.721Z" fill="#263238"/>
<path opacity="0.2" d="M199.718 470.721H210.607L198.069 197.186H182.996L199.718 470.721Z" fill="white"/>
<path d="M461.627 470.721H450.738L463.277 197.186H478.35L461.627 470.721Z" fill="#263238"/>
<path opacity="0.1" d="M461.627 470.721H450.738L463.277 197.186H478.35L461.627 470.721Z" fill="white"/>
<path d="M561.906 470.721H572.799L560.26 197.186H545.187L561.906 470.721Z" fill="#263238"/>
<path opacity="0.2" d="M561.906 470.721H572.799L560.26 197.186H545.187L561.906 470.721Z" fill="white"/>
<path d="M193.387 211.739H557.086V234.663H193.387V211.739Z" fill="#263238"/>
<path opacity="0.2" d="M193.387 211.739H557.086V234.663H193.387V211.739Z" fill="white"/>
<path d="M497.253 170.153C497.567 170.153 497.877 170.216 498.167 170.339C498.456 170.461 498.72 170.641 498.941 170.868C499.163 171.094 499.339 171.363 499.459 171.66C499.579 171.956 499.641 172.273 499.641 172.594V183.143C499.641 183.464 499.579 183.781 499.459 184.077C499.339 184.373 499.163 184.642 498.941 184.869C498.72 185.096 498.456 185.275 498.167 185.398C497.877 185.521 497.567 185.584 497.253 185.584H419.904C419.698 185.584 419.5 185.5 419.354 185.351C419.209 185.202 419.127 185 419.127 184.789V170.951C419.127 170.847 419.147 170.744 419.186 170.647C419.225 170.551 419.282 170.463 419.355 170.39C419.427 170.316 419.513 170.258 419.607 170.218C419.701 170.178 419.802 170.158 419.904 170.158L497.253 170.153Z" fill="#407BFF"/>
<path opacity="0.9" d="M451.477 171.621H419.129V184.107H451.477C451.842 184.107 452.192 183.959 452.45 183.695C452.709 183.431 452.854 183.073 452.854 182.7V173.028C452.854 172.655 452.709 172.297 452.45 172.033C452.192 171.769 451.842 171.621 451.477 171.621V171.621Z" fill="white"/>
<path d="M456.81 170.151H534.934C536.252 170.151 537.32 171.243 537.32 172.59V183.137C537.32 184.484 536.252 185.576 534.934 185.576H456.81C455.492 185.576 454.424 184.484 454.424 183.137V172.59C454.424 171.243 455.492 170.151 456.81 170.151Z" fill="#407BFF"/>
<path opacity="0.2" d="M456.81 170.151H534.934C536.252 170.151 537.32 171.243 537.32 172.59V183.137C537.32 184.484 536.252 185.576 534.934 185.576H456.81C455.492 185.576 454.424 184.484 454.424 183.137V172.59C454.424 171.243 455.492 170.151 456.81 170.151Z" fill="black"/>
<path opacity="0.5" d="M495.234 170.151H507.075C507.613 170.151 508.049 170.597 508.049 171.146V184.581C508.049 185.131 507.613 185.576 507.075 185.576H495.234C494.696 185.576 494.26 185.131 494.26 184.581V171.146C494.26 170.597 494.696 170.151 495.234 170.151Z" fill="#407BFF"/>
<path opacity="0.5" d="M489.958 170.151H478.113C477.985 170.151 477.859 170.177 477.74 170.227C477.622 170.277 477.515 170.35 477.424 170.442C477.334 170.535 477.262 170.645 477.213 170.765C477.164 170.886 477.139 171.016 477.139 171.146V184.581C477.139 184.845 477.242 185.098 477.424 185.285C477.607 185.472 477.855 185.576 478.113 185.576H489.958C490.215 185.576 490.463 185.472 490.645 185.285C490.827 185.099 490.93 184.846 490.93 184.583V171.145C490.93 170.881 490.827 170.628 490.645 170.442C490.463 170.256 490.215 170.151 489.958 170.151Z" fill="#407BFF"/>
<path d="M511.239 151.164C511.873 151.164 512.48 151.421 512.928 151.879C513.375 152.336 513.627 152.957 513.627 153.605V167.726C513.627 168.373 513.375 168.994 512.928 169.452C512.48 169.909 511.873 170.167 511.239 170.167H427.451C427.245 170.166 427.047 170.082 426.902 169.933C426.757 169.784 426.675 169.582 426.675 169.372V151.973C426.675 151.762 426.757 151.56 426.902 151.411C427.047 151.262 427.245 151.178 427.451 151.178L511.239 151.164Z" fill="#407BFF"/>
<path opacity="0.9" d="M465.462 152.634H426.674V168.683H465.462C465.826 168.683 466.176 168.535 466.434 168.272C466.692 168.008 466.837 167.651 466.838 167.278V154.041C466.838 153.668 466.693 153.31 466.435 153.046C466.177 152.782 465.827 152.634 465.462 152.634V152.634Z" fill="white"/>
<path d="M470.793 151.164H536.495C537.813 151.164 538.881 152.256 538.881 153.603V167.714C538.881 169.061 537.813 170.153 536.495 170.153H470.793C469.475 170.153 468.407 169.061 468.407 167.714V153.603C468.407 152.256 469.475 151.164 470.793 151.164Z" fill="#407BFF"/>
<path opacity="0.2" d="M470.793 151.164H536.495C537.813 151.164 538.881 152.256 538.881 153.603V167.714C538.881 169.061 537.813 170.153 536.495 170.153H470.793C469.475 170.153 468.407 169.061 468.407 167.714V153.603C468.407 152.256 469.475 151.164 470.793 151.164Z" fill="white"/>
<path opacity="0.6" d="M476.954 154.929H525.059C525.861 154.929 526.512 155.594 526.512 156.415V164.898C526.512 165.718 525.861 166.383 525.059 166.383H476.954C476.151 166.383 475.501 165.718 475.501 164.898V156.415C475.501 155.594 476.151 154.929 476.954 154.929Z" fill="#407BFF"/>
<path d="M486.659 142.067C487.978 142.067 489.047 142.712 489.047 143.505V149.727C489.047 150.522 487.979 151.166 486.659 151.166H409.302C408.872 151.166 408.524 150.956 408.524 150.697V142.538C408.524 142.28 408.865 142.069 409.302 142.069L486.659 142.067Z" fill="#407BFF"/>
<path opacity="0.9" d="M441.2 142.935H408.534V150.298H441.2C441.34 150.298 441.478 150.269 441.606 150.215C441.735 150.16 441.852 150.08 441.95 149.979C442.048 149.878 442.126 149.758 442.179 149.627C442.232 149.495 442.258 149.354 442.258 149.211V144.016C442.258 143.729 442.146 143.454 441.948 143.252C441.75 143.049 441.481 142.935 441.2 142.935V142.935Z" fill="white"/>
<path d="M445.66 142.067H524.893C525.905 142.067 526.725 142.905 526.725 143.94V149.29C526.725 150.324 525.905 151.162 524.893 151.162H445.66C444.648 151.162 443.828 150.324 443.828 149.29V143.94C443.828 142.905 444.648 142.067 445.66 142.067Z" fill="#407BFF"/>
<path opacity="0.2" d="M445.66 142.067H524.893C525.905 142.067 526.725 142.905 526.725 143.94V149.29C526.725 150.324 525.905 151.162 524.893 151.162H445.66C444.648 151.162 443.828 150.324 443.828 149.29V143.94C443.828 142.905 444.648 142.067 445.66 142.067Z" fill="black"/>
<path opacity="0.5" d="M514.937 142.067H517.41C517.608 142.067 517.77 142.232 517.77 142.435V150.794C517.77 150.997 517.608 151.162 517.41 151.162H514.937C514.738 151.162 514.577 150.997 514.577 150.794V142.435C514.577 142.232 514.738 142.067 514.937 142.067Z" fill="#407BFF"/>
<path opacity="0.5" d="M450.602 142.067H453.03C453.227 142.067 453.387 142.23 453.387 142.431V150.798C453.387 150.999 453.227 151.162 453.03 151.162H450.602C450.405 151.162 450.245 150.999 450.245 150.798V142.431C450.245 142.23 450.405 142.067 450.602 142.067Z" fill="#407BFF"/>
<path d="M500.644 128.924C501.962 128.924 503.031 129.567 503.031 130.362V140.631C503.031 141.424 501.962 142.067 500.644 142.067H416.855C416.427 142.067 416.079 141.858 416.079 141.6V129.397C416.079 129.139 416.42 128.929 416.855 128.929L500.644 128.924Z" fill="#407BFF"/>
<path opacity="0.9" d="M455.183 129.79H416.076V141.201H455.183C455.463 141.201 455.732 141.087 455.93 140.885C456.128 140.683 456.24 140.408 456.24 140.122V130.871C456.24 130.585 456.129 130.31 455.931 130.107C455.732 129.904 455.463 129.79 455.183 129.79V129.79Z" fill="white"/>
<path d="M459.645 128.924H526.455C527.467 128.924 528.287 129.762 528.287 130.796V140.196C528.287 141.231 527.467 142.069 526.455 142.069H459.645C458.633 142.069 457.813 141.231 457.813 140.196V130.796C457.813 129.762 458.633 128.924 459.645 128.924Z" fill="#407BFF"/>
<path opacity="0.1" d="M459.645 128.924H526.455C527.467 128.924 528.287 129.762 528.287 130.796V140.196C528.287 141.231 527.467 142.069 526.455 142.069H459.645C458.633 142.069 457.813 141.231 457.813 140.196V130.796C457.813 129.762 458.633 128.924 459.645 128.924Z" fill="black"/>
<path d="M313.759 182.678H384.151C384.528 182.68 384.888 182.833 385.154 183.105C385.42 183.377 385.569 183.746 385.57 184.13C385.569 184.515 385.42 184.884 385.154 185.156C384.888 185.428 384.528 185.581 384.151 185.583H313.759C313.383 185.581 313.023 185.428 312.756 185.156C312.49 184.884 312.34 184.515 312.339 184.13C312.34 183.746 312.49 183.377 312.756 183.105C313.023 182.833 313.383 182.68 313.759 182.678Z" fill="white"/>
<path d="M176.056 179.224H129.805L125.625 185.407H180.234L176.056 179.224Z" fill="#506D9A"/>
<path d="M104.631 73.6C104.631 74.8578 104.996 76.0874 105.68 77.1333C106.363 78.1791 107.335 78.9942 108.472 79.4756C109.609 79.957 110.86 80.0829 112.066 79.8375C113.273 79.5921 114.382 78.9864 115.252 78.097C116.122 77.2076 116.715 76.0744 116.955 74.8407C117.195 73.607 117.072 72.3283 116.601 71.1662C116.13 70.0041 115.332 69.0109 114.309 68.3121C113.286 67.6132 112.083 67.2402 110.853 67.2402C109.203 67.2402 107.62 67.9103 106.453 69.103C105.287 70.2957 104.631 71.9133 104.631 73.6Z" fill="black"/>
<path d="M151.402 183.408C151.726 183.407 152.044 183.325 152.329 183.168C152.614 183.011 152.857 182.784 153.036 182.508C153.215 182.232 153.324 181.915 153.355 181.586C153.385 181.256 153.335 180.924 153.209 180.619L108.649 72.8205C108.445 72.3297 108.059 71.9416 107.576 71.7417C107.092 71.5418 106.551 71.5463 106.071 71.7544C105.591 71.9625 105.211 72.357 105.015 72.8512C104.82 73.3453 104.824 73.8987 105.028 74.3895L149.589 182.188C149.74 182.551 149.993 182.86 150.315 183.077C150.638 183.294 151.016 183.409 151.402 183.408Z" fill="#506D9A"/>
<path d="M106.842 75.6079C107.266 75.6087 107.679 75.4685 108.019 75.2087L188.949 13.195C189.366 12.8752 189.642 12.3991 189.716 11.8712C189.79 11.3434 189.656 10.8071 189.344 10.3803C189.031 9.95352 188.565 9.67125 188.049 9.59556C187.532 9.51987 187.008 9.65698 186.59 9.97671L105.657 71.9921C105.326 72.2451 105.082 72.5981 104.959 73.0008C104.836 73.4036 104.84 73.8358 104.971 74.236C105.102 74.6362 105.353 74.9842 105.688 75.2304C106.023 75.4767 106.426 75.6088 106.838 75.6079H106.842Z" fill="#506D9A"/>
<path d="M100.615 73.6C100.615 74.8577 100.98 76.0873 101.664 77.1331C102.347 78.1789 103.319 78.994 104.456 79.4754C105.592 79.9568 106.843 80.0829 108.05 79.8376C109.257 79.5924 110.366 78.9868 111.236 78.0976C112.106 77.2083 112.699 76.0753 112.939 74.8418C113.179 73.6082 113.056 72.3295 112.585 71.1674C112.115 70.0053 111.318 69.0119 110.295 68.3129C109.272 67.6139 108.069 67.2406 106.839 67.2402C105.188 67.2402 103.606 67.9102 102.439 69.1029C101.272 70.2955 100.616 71.9131 100.615 73.6Z" fill="#506D9A"/>
<path d="M187.774 17.9299C184.346 17.9299 181.567 15.0888 181.567 11.5841C181.567 8.0794 184.346 5.23828 187.774 5.23828C191.203 5.23828 193.982 8.0794 193.982 11.5841C193.982 15.0888 191.203 17.9299 187.774 17.9299Z" fill="#506D9A"/>
<path d="M196.472 40.592C198.417 42.5803 200.896 43.9344 203.593 44.4829C206.291 45.0315 209.088 44.7499 211.629 43.6738C214.171 42.5978 216.343 40.7755 217.871 38.4375C219.399 36.0996 220.215 33.3508 220.215 30.5389C220.215 27.7271 219.399 24.9783 217.871 22.6403C216.343 20.3023 214.171 18.4801 211.629 17.404C209.088 16.3279 206.291 16.0464 203.593 16.5949C200.896 17.1435 198.417 18.4975 196.472 20.4858C195.181 21.806 194.156 23.3733 193.457 25.0982C192.758 26.8231 192.399 28.6719 192.399 30.5389C192.399 32.406 192.758 34.2547 193.457 35.9797C194.156 37.7046 195.181 39.2719 196.472 40.592Z" fill="#407BFF"/>
<path opacity="0.7" d="M196.472 40.592C198.417 42.5803 200.896 43.9344 203.593 44.4829C206.291 45.0315 209.088 44.7499 211.629 43.6738C214.171 42.5978 216.343 40.7755 217.871 38.4375C219.399 36.0996 220.215 33.3508 220.215 30.5389C220.215 27.7271 219.399 24.9783 217.871 22.6403C216.343 20.3023 214.171 18.4801 211.629 17.404C209.088 16.3279 206.291 16.0464 203.593 16.5949C200.896 17.1435 198.417 18.4975 196.472 20.4858C195.181 21.806 194.156 23.3733 193.457 25.0982C192.758 26.8231 192.399 28.6719 192.399 30.5389C192.399 32.406 192.758 34.2547 193.457 35.9797C194.156 37.7046 195.181 39.2719 196.472 40.592Z" fill="white"/>
<path d="M187.773 11.5844C190.542 8.75409 193.829 6.50893 197.447 4.97716C201.064 3.44538 204.942 2.65698 208.857 2.65698C212.773 2.65698 216.65 3.44538 220.268 4.97716C223.886 6.50893 227.173 8.75409 229.941 11.5844L187.773 54.6875C182.182 48.9713 179.042 41.2192 179.042 33.136C179.042 25.0528 182.182 17.3006 187.773 11.5844Z" fill="#506D9A"/>
<g opacity="0.2">
<path opacity="0.2" d="M229.941 11.5857L407.02 185.575H225.366L187.775 54.6855L229.941 11.5857Z" fill="#407BFF"/>
<path opacity="0.7" d="M229.941 11.5857L407.02 185.575H225.366L187.775 54.6855L229.941 11.5857Z" fill="white"/>
</g>
</svg>
