<svg width="190" height="190" viewBox="0 0 190 190" fill="none" xmlns="http://www.w3.org/2000/svg">
<path d="M41.5625 14.8438H163.281C173.119 14.8438 181.094 22.8187 181.094 32.6563V160.313C181.094 165.231 177.106 169.219 172.188 169.219H59.375C54.4562 169.219 50.4688 165.231 50.4688 160.313V23.75L41.5625 14.8438Z" fill="#BDD7E9"/>
<path d="M50.4688 139.531H181.094V169.219H50.4688V139.531Z" fill="#99B2D8"/>
<path d="M169.219 14.8438H50.4688C47.1896 14.8438 44.5312 17.5021 44.5312 20.7812C44.5312 24.0604 47.1896 26.7188 50.4688 26.7188H169.219C172.498 26.7188 175.156 24.0604 175.156 20.7812C175.156 17.5021 172.498 14.8438 169.219 14.8438Z" fill="#99B2D8"/>
<path d="M44.5313 50.4688H20.7813C17.5021 50.4688 14.8438 47.8104 14.8438 44.5313V32.6563C14.8438 22.8187 22.8187 14.8438 32.6563 14.8438C42.4938 14.8438 50.4688 22.8187 50.4688 32.6563V44.5313C50.4688 47.8104 47.8104 50.4688 44.5313 50.4688Z" fill="#61ADE2"/>
<path d="M115.781 187.031L103.906 181.094L86.0938 187.031V160.312H115.781V187.031Z" fill="#8699E5"/>
<path d="M83.6297 137.631L80.1562 132.792L85.8266 130.922C87.1188 130.498 88.0085 129.312 88.0531 127.953V121.719L93.7531 123.53C95.0749 123.945 96.5148 123.481 97.3453 122.372L100.938 117.681L104.47 122.491C105.301 123.599 106.741 124.064 108.063 123.648L113.792 121.719V127.656C113.837 129.015 114.727 130.202 116.019 130.625L121.689 132.495L118.216 137.364C117.394 138.497 117.394 140.031 118.216 141.164L121.719 146.27L116.048 148.141C114.756 148.564 113.867 149.75 113.822 151.109V157.047L108.122 155.236C106.8 154.821 105.36 155.285 104.53 156.394L100.938 161.381L97.4047 156.572C96.5741 155.463 95.1343 154.999 93.8125 155.414L88.0828 157.344V151.406C88.0382 150.047 87.1485 148.861 85.8563 148.438L80.1563 146.27L83.6297 141.402C84.4375 140.275 84.4375 138.758 83.6297 137.631H83.6297Z" fill="#F9E3AE"/>
<path d="M117.622 139.531H84.2531C84.2511 140.215 84.0329 140.88 83.6297 141.431L80.1562 146.27L85.8266 148.141C87.1188 148.564 88.0085 149.75 88.0531 151.109V157.047L93.7531 155.236C95.0749 154.821 96.5148 155.285 97.3453 156.394L100.938 161.381L104.47 156.572C105.301 155.463 106.741 154.999 108.063 155.414L113.763 157.225V151.288C113.807 149.928 114.697 148.742 115.989 148.319L121.719 146.27L118.245 141.402C117.848 140.858 117.63 140.204 117.622 139.531H117.622Z" fill="#F6D397"/>
<path d="M151.406 83.125H139.531C137.892 83.125 136.563 84.4542 136.563 86.0938C136.563 87.7334 137.892 89.0625 139.531 89.0625H151.406C153.046 89.0625 154.375 87.7334 154.375 86.0938C154.375 84.4542 153.046 83.125 151.406 83.125ZM127.656 83.125H80.1563C78.5166 83.125 77.1875 84.4542 77.1875 86.0938C77.1875 87.7334 78.5166 89.0625 80.1563 89.0625H127.656C129.296 89.0625 130.625 87.7334 130.625 86.0938C130.625 84.4542 129.296 83.125 127.656 83.125ZM77.1875 68.2813C77.1875 69.9209 78.5166 71.25 80.1563 71.25H103.906C105.546 71.25 106.875 69.9209 106.875 68.2813C106.875 66.6416 105.546 65.3125 103.906 65.3125H80.1563C78.5166 65.3125 77.1875 66.6416 77.1875 68.2813ZM115.781 71.25H151.406C153.046 71.25 154.375 69.9209 154.375 68.2813C154.375 66.6416 153.046 65.3125 151.406 65.3125H115.781C114.142 65.3125 112.813 66.6416 112.813 68.2813C112.813 69.9209 114.142 71.25 115.781 71.25Z" fill="#8699E5"/>
<path d="M121.719 35.625C123.358 35.625 124.688 34.2959 124.688 32.6563V26.7188C124.688 25.0791 123.358 23.75 121.719 23.75C120.079 23.75 118.75 25.0791 118.75 26.7188V32.6563C118.75 34.2959 120.079 35.625 121.719 35.625ZM136.563 35.625C138.202 35.625 139.531 34.2959 139.531 32.6563V26.7188C139.531 25.0791 138.202 23.75 136.563 23.75C134.923 23.75 133.594 25.0791 133.594 26.7188V32.6563C133.594 34.2959 134.923 35.625 136.563 35.625ZM151.406 35.625C153.046 35.625 154.375 34.2959 154.375 32.6563V26.7188C154.375 25.0791 153.046 23.75 151.406 23.75C149.767 23.75 148.438 25.0791 148.438 26.7188V32.6563C148.438 34.2959 149.767 35.625 151.406 35.625ZM166.25 35.625C167.89 35.625 169.219 34.2959 169.219 32.6563V26.7188C169.219 25.0791 167.89 23.75 166.25 23.75C164.61 23.75 163.281 25.0791 163.281 26.7188V32.6563C163.281 34.2959 164.61 35.625 166.25 35.625ZM62.3438 23.75C60.7041 23.75 59.375 25.0791 59.375 26.7188V32.6563C59.375 34.2959 60.7041 35.625 62.3438 35.625C63.9834 35.625 65.3125 34.2959 65.3125 32.6563V26.7188C65.3125 25.0791 63.9834 23.75 62.3438 23.75ZM80.1563 32.6563V26.7188C80.1563 25.0791 78.8271 23.75 77.1875 23.75C75.5479 23.75 74.2188 25.0791 74.2188 26.7188V32.6563C74.2188 34.2959 75.5479 35.625 77.1875 35.625C78.8271 35.625 80.1563 34.2959 80.1563 32.6563ZM92.0313 35.625C93.6709 35.625 95 34.2959 95 32.6563V26.7188C95 25.0791 93.6709 23.75 92.0313 23.75C90.3917 23.75 89.0625 25.0791 89.0625 26.7188V32.6563C89.0625 34.2959 90.3917 35.625 92.0313 35.625ZM106.875 35.625C108.515 35.625 109.844 34.2959 109.844 32.6563V26.7188C109.844 25.0791 108.515 23.75 106.875 23.75C105.235 23.75 103.906 25.0791 103.906 26.7188V32.6563C103.906 34.2959 105.235 35.625 106.875 35.625Z" fill="#407BFF"/>
<path d="M163.281 11.875H32.6563C21.1791 11.875 11.875 21.1791 11.875 32.6563V38.5938C11.875 46.7917 18.5208 53.4375 26.7188 53.4375H47.5V163.281C47.5 168.2 51.4875 172.188 56.4063 172.188H83.125V187.031C83.1281 188.06 83.6638 189.014 84.5407 189.552C85.4177 190.091 86.5108 190.136 87.4297 189.673L101.175 184.3L114.861 189.852C115.158 189.949 115.469 189.999 115.781 190C117.421 190 118.75 188.671 118.75 187.031V172.188H175.156C180.075 172.188 184.063 168.2 184.063 163.281V32.6563C184.063 21.1791 174.758 11.875 163.281 11.875ZM38.5938 47.5C40.5208 44.9306 41.5625 41.8055 41.5625 38.5938V35.625C41.5625 33.9854 40.2334 32.6563 38.5938 32.6563C36.9542 32.6563 35.625 33.9854 35.625 35.625V38.5938C35.625 43.5125 31.6375 47.5 26.7188 47.5C21.8 47.5 17.8125 43.5125 17.8125 38.5938V32.6563C17.8125 24.4583 24.4583 17.8125 32.6563 17.8125C36.6326 17.6787 40.4864 19.1996 43.2996 22.0129C46.1129 24.8262 47.6338 28.6799 47.5 32.6563V47.5H38.5938ZM85.2031 137.809L82.0266 133.356L87.2219 131.634C88.3506 131.171 89.0808 130.064 89.0625 128.844V123.381L94.2578 125.044C95.4718 125.432 96.798 125.002 97.5532 123.975L100.938 119.552L104.173 123.945C104.929 124.972 106.255 125.402 107.469 125.014L112.813 123.381V128.844C112.826 130.117 113.65 131.24 114.861 131.634L120.056 133.356L116.88 137.809C116.132 138.846 116.132 140.246 116.88 141.283L120.056 145.736L114.861 147.458C113.65 147.852 112.826 148.975 112.813 150.248V155.711L107.617 154.048C106.403 153.66 105.077 154.091 104.322 155.117L100.938 159.511L97.7016 155.117C96.9464 154.091 95.6203 153.66 94.4063 154.048L89.0625 155.681V150.219C89.0488 148.946 88.2247 147.823 87.0141 147.428L81.8188 145.706L84.9953 141.253C85.7744 140.254 85.834 138.871 85.1438 137.809L85.2031 137.809ZM101.947 178.273C101.622 178.166 101.28 178.116 100.938 178.125C100.473 178.128 100.015 178.24 99.6016 178.452L89.0625 182.222V161.945L94.1688 160.313L98.5328 166.25C99.0924 167.009 99.9795 167.457 100.923 167.457C101.866 167.457 102.753 167.009 103.313 166.25L107.677 160.313L112.783 161.945V182.905L101.947 178.273ZM175.156 166.25H118.75V152.356L125.608 150.07C126.503 149.774 127.204 149.07 127.497 148.174C127.79 147.278 127.64 146.296 127.092 145.528L122.788 139.591L127.092 133.653C127.64 132.885 127.79 131.903 127.497 131.007C127.204 130.111 126.503 129.407 125.608 129.111L118.75 126.677V119.314C118.746 118.371 118.295 117.485 117.533 116.929C116.771 116.372 115.79 116.211 114.891 116.494L107.706 118.75L103.342 112.812C102.783 112.053 101.896 111.605 100.952 111.605C100.009 111.605 99.1221 112.053 98.5625 112.812L94.1984 118.75L87.1625 116.523C86.2626 116.24 85.2818 116.402 84.5202 116.958C83.7586 117.515 83.3068 118.4 83.3031 119.344V126.706L76.3266 129.022C75.4314 129.318 74.7302 130.022 74.4373 130.918C74.1445 131.814 74.2947 132.796 74.8422 133.564L79.1469 139.502L74.8422 145.439C74.2947 146.207 74.1445 147.189 74.4373 148.085C74.7302 148.981 75.4314 149.685 76.3266 149.981L83.1844 152.267V166.25H56.4062C54.7666 166.25 53.4375 164.921 53.4375 163.281V142.5H68.2812C69.9208 142.5 71.25 141.171 71.25 139.531C71.25 137.892 69.9208 136.563 68.2812 136.563H53.4375V32.6563C53.5169 27.1145 51.3794 21.7707 47.5 17.8125H163.281C171.479 17.8125 178.125 24.4583 178.125 32.6563V136.563H133.594C131.954 136.563 130.625 137.892 130.625 139.531C130.625 141.171 131.954 142.5 133.594 142.5H178.125V163.281C178.125 164.921 176.796 166.25 175.156 166.25H175.156Z" fill="#3F51B5"/>
</svg>
