<svg width="164" height="164" viewBox="0 0 164 164" fill="none" xmlns="http://www.w3.org/2000/svg">
<g clip-path="url(#clip0)">
<path d="M94.8125 135.812L79.4375 151.187L82 158.875H92.25L105.062 146.062L94.8125 135.812Z" fill="#407BFF"/>
<path d="M148.625 48.6875H15.375C11.1289 48.6875 7.6875 52.1289 7.6875 56.375V125.562C7.6875 129.809 11.1289 133.25 15.375 133.25H148.625C152.871 133.25 156.312 129.809 156.312 125.562V56.375C156.312 52.1289 152.871 48.6875 148.625 48.6875Z" fill="#1D2565"/>
<path d="M153.75 133.25H10.25C8.8355 133.25 7.6875 132.102 7.6875 130.687V128.125C7.6875 122.464 12.2769 117.875 17.9375 117.875H146.062C151.723 117.875 156.312 122.464 156.312 128.125V130.687C156.312 132.102 155.164 133.25 153.75 133.25Z" fill="#353E87"/>
<path d="M156.312 20.5H7.6875C4.85593 20.5 2.5625 22.7934 2.5625 25.625V50.7452C2.5625 55.5371 5.88094 59.6883 10.5549 60.7441L82 76.875L153.445 60.7415C158.119 59.6857 161.437 55.5345 161.437 50.7452V25.625C161.437 22.7934 159.144 20.5 156.312 20.5V20.5Z" fill="#1D2565"/>
<path d="M7.6875 20.5H156.312C159.144 20.5 161.437 22.7934 161.437 25.625C161.437 29.8711 157.996 33.3125 153.75 33.3125H10.25C6.00394 33.3125 2.5625 29.8711 2.5625 25.625C2.5625 22.7934 4.85593 20.5 7.6875 20.5Z" fill="#353E87"/>
<path d="M87.125 84.5625H76.875C75.4605 84.5625 74.3125 83.4145 74.3125 82V66.625C74.3125 65.2105 75.4605 64.0625 76.875 64.0625H87.125C88.5395 64.0625 89.6875 65.2105 89.6875 66.625V82C89.6875 83.4145 88.5395 84.5625 87.125 84.5625Z" fill="white"/>
<path d="M125.562 79.4375C105.749 79.4375 89.6875 95.4993 89.6875 115.312C89.6875 135.126 105.749 151.187 125.562 151.187C145.376 151.187 161.437 135.126 161.437 115.312C161.437 95.4993 145.376 79.4375 125.562 79.4375Z" fill="#407BFF"/>
<path d="M125.562 89.6875C111.41 89.6875 99.9375 101.16 99.9375 115.312C99.9375 129.465 111.41 140.937 125.562 140.937C139.715 140.937 151.187 129.465 151.187 115.312C151.187 101.16 139.715 89.6875 125.562 89.6875Z" fill="#ABDEF9"/>
<path d="M125.562 99.9375C117.071 99.9375 110.188 106.821 110.188 115.312C110.188 123.804 117.071 130.687 125.562 130.687C134.054 130.687 140.937 123.804 140.937 115.312C140.937 106.821 134.054 99.9375 125.562 99.9375Z" fill="#C6EDFF"/>
<path d="M117.875 99.9375C113.629 99.9375 110.188 103.379 110.188 107.625C110.188 111.871 113.629 115.312 117.875 115.312C122.121 115.312 125.562 111.871 125.562 107.625C125.562 103.379 122.121 99.9375 117.875 99.9375ZM134.531 120.437C132.408 120.437 130.687 122.158 130.687 124.281C130.687 126.404 132.408 128.125 134.531 128.125C136.654 128.125 138.375 126.404 138.375 124.281C138.375 122.158 136.654 120.437 134.531 120.437Z" fill="#F2F2F2"/>
<path d="M164 50.7375V25.625C164 21.3969 160.541 17.9375 156.313 17.9375H111.558L103.592 5.986C102.162 3.84119 99.7709 2.5625 97.1956 2.5625H66.8044C64.2291 2.5625 61.8383 3.84119 60.4084 5.986L52.4416 17.9375H7.6875C3.45938 17.9375 0 21.3969 0 25.625V50.7375C0 54.9144 1.9475 58.6556 5.125 60.9875V128.125C5.125 132.353 8.58438 135.812 12.8125 135.812H90.7612L79.745 146.806C75.9269 150.649 75.9269 156.851 79.745 160.694C81.6669 162.591 84.1781 163.564 86.6894 163.564C89.2006 163.564 91.7119 162.591 93.6337 160.694L105.37 148.932C105.575 148.727 105.754 148.548 105.908 148.318C111.648 151.777 118.388 153.75 125.562 153.75C146.754 153.75 164 136.504 164 115.313C164 108.343 162.129 101.808 158.875 96.1706V60.9875C162.053 58.6556 164 54.9144 164 50.7375ZM64.6724 8.82782C65.149 8.11288 65.9459 7.6875 66.8044 7.6875H97.1956C98.0541 7.6875 98.851 8.11288 99.3276 8.82782L105.398 17.9375H58.6018L64.6724 8.82782ZM89.995 157.056C88.1756 158.901 85.2031 158.901 83.3838 157.056C81.5388 155.236 81.5388 152.264 83.3838 150.444L95.0944 138.708C97.0163 141.194 99.22 143.449 101.68 145.396L89.995 157.056ZM151.828 135.761C145.755 143.577 136.248 148.625 125.563 148.625C118.951 148.625 112.801 146.703 107.625 143.372C104.448 141.322 101.629 138.785 99.3225 135.812C98.5794 134.89 97.9131 133.916 97.2981 132.891C96.8369 132.174 96.4013 131.431 96.0169 130.688C94.3769 127.536 93.1981 124.076 92.66 120.438C92.3781 118.772 92.25 117.055 92.25 115.313C92.25 96.9394 107.189 82 125.563 82C137.427 82 147.856 88.2269 153.75 97.58C157.004 102.731 158.875 108.804 158.875 115.313C158.875 123 156.236 130.124 151.828 135.761ZM125.563 76.875C104.371 76.875 87.125 94.1206 87.125 115.313H17.9375C16.5281 115.313 15.375 116.466 15.375 117.875C15.375 119.284 16.5281 120.438 17.9375 120.438H87.4838C87.945 124.051 88.9444 127.484 90.3538 130.688H12.8125C11.4031 130.688 10.25 129.534 10.25 128.125V63.2938L71.75 77.2081V82C71.75 84.8188 74.0563 87.125 76.875 87.125H87.125C89.9438 87.125 92.25 84.8188 92.25 82V77.2081L153.75 63.2938V89.2263C146.729 81.6413 136.684 76.875 125.563 76.875ZM76.875 66.625H87.125V82H76.875V66.625ZM153.75 57.9894C153.468 58.0919 153.186 58.1688 152.879 58.2456L92.25 71.9294V66.625C92.25 63.8062 89.9438 61.5 87.125 61.5H76.875C74.0563 61.5 71.75 63.8062 71.75 66.625V71.9294L11.1213 58.2456C10.8138 58.1688 10.5319 58.0919 10.25 57.9894C7.17501 56.9131 5.12501 54.0431 5.12501 50.7375V38.4375C6.53951 38.4375 7.68751 37.2921 7.68751 35.875V30.75C7.68751 29.3329 6.53951 28.1875 5.12501 28.1875V25.625C5.12501 24.2156 6.27814 23.0625 7.68751 23.0625H49.0232H114.974H156.313C157.722 23.0625 158.875 24.2156 158.875 25.625V28.1875C157.461 28.1875 156.313 29.3329 156.313 30.75V35.875C156.313 37.2921 157.461 38.4375 158.875 38.4375V50.7375C158.875 54.0431 156.825 56.9131 153.75 57.9894Z" fill="#3F51B5"/>
<path d="M17.9375 28.1875C16.523 28.1875 15.375 29.3329 15.375 30.75V35.875C15.375 37.2921 16.523 38.4375 17.9375 38.4375C19.352 38.4375 20.5 37.2921 20.5 35.875V30.75C20.5 29.3329 19.352 28.1875 17.9375 28.1875ZM30.75 28.1875C29.3355 28.1875 28.1875 29.3329 28.1875 30.75V35.875C28.1875 37.2921 29.3355 38.4375 30.75 38.4375C32.1645 38.4375 33.3125 37.2921 33.3125 35.875V30.75C33.3125 29.3329 32.1645 28.1875 30.75 28.1875ZM43.5625 28.1875C42.148 28.1875 41 29.3329 41 30.75V35.875C41 37.2921 42.148 38.4375 43.5625 38.4375C44.977 38.4375 46.125 37.2921 46.125 35.875V30.75C46.125 29.3329 44.977 28.1875 43.5625 28.1875ZM56.375 28.1875C54.9605 28.1875 53.8125 29.3329 53.8125 30.75V35.875C53.8125 37.2921 54.9605 38.4375 56.375 38.4375C57.7895 38.4375 58.9375 37.2921 58.9375 35.875V30.75C58.9375 29.3329 57.7895 28.1875 56.375 28.1875ZM69.1875 28.1875C67.773 28.1875 66.625 29.3329 66.625 30.75V35.875C66.625 37.2921 67.773 38.4375 69.1875 38.4375C70.602 38.4375 71.75 37.2921 71.75 35.875V30.75C71.75 29.3329 70.602 28.1875 69.1875 28.1875ZM82 28.1875C80.5855 28.1875 79.4375 29.3329 79.4375 30.75V35.875C79.4375 37.2921 80.5855 38.4375 82 38.4375C83.4145 38.4375 84.5625 37.2921 84.5625 35.875V30.75C84.5625 29.3329 83.4145 28.1875 82 28.1875ZM94.8125 28.1875C93.398 28.1875 92.25 29.3329 92.25 30.75V35.875C92.25 37.2921 93.398 38.4375 94.8125 38.4375C96.227 38.4375 97.375 37.2921 97.375 35.875V30.75C97.375 29.3329 96.227 28.1875 94.8125 28.1875ZM107.625 28.1875C106.211 28.1875 105.063 29.3329 105.063 30.75V35.875C105.063 37.2921 106.211 38.4375 107.625 38.4375C109.04 38.4375 110.188 37.2921 110.188 35.875V30.75C110.188 29.3329 109.04 28.1875 107.625 28.1875ZM120.438 28.1875C119.023 28.1875 117.875 29.3329 117.875 30.75V35.875C117.875 37.2921 119.023 38.4375 120.438 38.4375C121.852 38.4375 123 37.2921 123 35.875V30.75C123 29.3329 121.852 28.1875 120.438 28.1875ZM133.25 28.1875C131.836 28.1875 130.688 29.3329 130.688 30.75V35.875C130.688 37.2921 131.836 38.4375 133.25 38.4375C134.665 38.4375 135.813 37.2921 135.813 35.875V30.75C135.813 29.3329 134.665 28.1875 133.25 28.1875ZM146.063 28.1875C144.648 28.1875 143.5 29.3329 143.5 30.75V35.875C143.5 37.2921 144.648 38.4375 146.063 38.4375C147.477 38.4375 148.625 37.2921 148.625 35.875V30.75C148.625 29.3329 147.477 28.1875 146.063 28.1875ZM125.342 87.125C109.921 87.125 97.375 99.671 97.375 115.092C97.375 130.513 109.921 143.059 125.342 143.059C140.763 143.059 153.309 130.513 153.309 115.092C153.309 99.671 140.763 87.125 125.342 87.125ZM125.342 137.934C112.747 137.934 102.5 127.687 102.5 115.092C102.5 102.497 112.747 92.25 125.342 92.25C137.937 92.25 148.184 102.497 148.184 115.092C148.184 127.687 137.937 137.934 125.342 137.934Z" fill="#3F51B5"/>
<path d="M125.342 96.9291C123.927 96.9291 122.779 98.0746 122.779 99.4916C122.779 100.909 123.927 102.054 125.342 102.054C130.574 102.054 135.284 105.165 137.339 109.983C137.755 110.956 138.703 111.538 139.697 111.538C140.033 111.538 140.373 111.474 140.701 111.333C142.003 110.777 142.608 109.27 142.052 107.971C139.192 101.265 132.632 96.9291 125.342 96.9291Z" fill="#3F51B5"/>
</g>
<defs>
<clipPath id="clip0">
<rect width="164" height="164" fill="white"/>
</clipPath>
</defs>
</svg>
